<svg width="866" height="867" viewBox="0 0 866 867" fill="none" xmlns="http://www.w3.org/2000/svg">
<path d="M472.366 737.088C611.602 717.981 750.234 572.435 699.209 426.053C687.022 391.105 674.632 355.653 674.212 318.205C673.862 286.398 675.591 252.569 660.402 223.51C626.614 158.882 548.727 164.15 487.503 170.157C429.33 175.862 370.821 154.331 313.457 165.213C278 171.951 246.842 192.394 224.616 220.525C201.828 249.348 199.093 284.838 187.619 318.565C178.924 344.155 162.984 364.596 151.063 388.339C140.883 408.682 135.878 433.461 133.855 456.111C129.421 505.648 141.561 556.165 166.37 599.097C226.225 702.442 355.307 753.165 472.366 737.088Z" fill="#A4E8EB"/>
</svg>
