<svg width="65" height="65" viewBox="0 0 65 65" fill="none" xmlns="http://www.w3.org/2000/svg">
<path d="M13.7283 47.7686C12.0719 50.457 9.2418 52.6467 6.16245 53.291C8.84084 54.2528 12.0452 54.7572 14.8589 54.3173C16.2871 54.0928 18.0124 53.9737 19.3706 52.9549C23.7274 55.7649 29.9834 58.4197 34.8762 58.2585C40.2127 58.0824 45.9282 55.7549 50.1335 52.5203C54.5679 49.1091 57.8808 44.1709 59.0697 38.6926C60.7333 31.0211 58.0235 22.6588 52.5061 17.12C43.5541 8.12982 25.3372 4.68144 15.1547 18.0082C9.66042 25.1984 7.68209 35.3195 11.3839 43.7548C12.0029 45.164 12.7943 46.5086 13.7283 47.7686Z" fill="#111111"/>
<path d="M13.3727 47.0033C11.9564 49.8238 9.32781 52.2482 6.31637 53.1587C9.06917 53.8827 12.3089 54.1062 15.0746 53.424C16.4794 53.0763 18.1898 52.8083 19.453 51.6756C24.0417 54.0934 30.5117 56.1933 35.3757 55.608C40.6805 54.9684 46.1726 52.1551 50.0798 48.5692C54.2011 44.7887 57.0693 39.5835 57.7732 34.0261C58.7581 26.2439 55.3215 18.1558 49.3365 13.1202C39.6237 4.9491 21.1622 3.09997 12.1819 17.2529C7.33726 24.8876 6.25419 35.137 10.6847 43.2126C11.4248 44.5619 12.3326 45.8304 13.3727 47.0033Z" fill="white"/>
<path d="M58.4395 34.4312C59.1608 29.2514 57.9487 23.9408 55.4131 19.4118C53.1749 15.4116 49.8673 12.1373 45.9079 9.86594C42.5804 7.95529 38.8361 6.71963 35.033 6.2447C31.0943 5.75241 27.0546 6.06254 23.2915 7.36702C19.299 8.75035 15.7981 11.281 13.1544 14.5802C9.97162 18.5531 7.99931 23.5349 7.38317 28.5801C6.74035 33.8457 7.65704 39.2776 10.2818 43.9013C10.9177 45.0205 11.6696 46.0682 12.4993 47.0504C11.0664 49.5713 8.79066 51.5794 6.01759 52.4282C5.71626 52.5201 5.56618 52.9331 5.6207 53.2181C5.68599 53.5575 5.91329 53.8299 6.25149 53.9174C8.11495 54.4047 10.051 54.6418 11.9765 54.598C13.7724 54.5576 15.5583 54.1803 17.2765 53.6724C18.0996 53.4292 18.8989 53.079 19.5871 52.564C21.9379 53.7659 24.4147 54.7368 26.9539 55.4464C29.5195 56.1623 32.2353 56.6359 34.9058 56.4338C37.6767 56.2255 40.4369 55.3585 42.9529 54.1999C45.5311 53.0153 47.965 51.4615 50.1012 49.5882C54.5257 45.7076 57.6226 40.2917 58.438 34.4287L58.4395 34.4312ZM56.0421 38.2297C55.1148 40.8933 53.7015 43.3498 51.9088 45.5318C50.177 47.638 48.0509 49.4339 45.7509 50.9032C43.4712 52.36 40.8945 53.5299 38.255 54.2509C37.0528 54.5782 35.7347 54.8323 34.4484 54.9083C33.1925 54.983 32.074 54.9051 30.8333 54.7266C28.16 54.3453 25.5735 53.564 23.1013 52.5553C21.9414 52.0832 20.8053 51.5565 19.6975 50.9738C19.4799 50.8591 19.1874 50.8775 18.9993 51.044C17.83 52.0719 16.2259 52.3632 14.7524 52.7009C13.0063 53.1007 11.1807 53.1491 9.41447 52.957C9.24081 52.937 9.06822 52.9129 8.89505 52.8908C11.0531 51.6466 12.8432 49.7011 13.9572 47.4989C13.9618 47.4892 13.9667 47.4774 13.9712 47.4677C14.1311 47.1931 14.1216 46.7915 13.9133 46.556C13.9098 46.553 13.9066 46.548 13.9032 46.545C13.8903 46.5267 13.8749 46.5101 13.8595 46.4934C12.0477 44.4278 10.7357 42.1775 9.83415 39.5853C9.41699 38.3869 9.15146 37.3369 8.92949 36.0233C8.82481 35.3982 8.74303 34.7678 8.68753 34.1351C8.63049 33.4998 8.60459 32.9864 8.59654 32.4341C8.57985 31.161 8.65591 29.8864 8.82132 28.6246C8.98711 27.3521 9.20521 26.2842 9.54194 25.0612C10.2154 22.6153 11.1838 20.3478 12.4731 18.222C13.0678 17.2422 13.7243 16.3008 14.4472 15.4143C14.8085 14.972 15.0587 14.6888 15.3929 14.3329C15.7532 13.9486 16.1294 13.579 16.5153 13.2226C17.267 12.5306 18.068 11.8937 18.9086 11.3159C19.0986 11.1866 19.29 11.0597 19.4831 10.9354C19.5874 10.8676 19.6932 10.8023 19.799 10.737C19.8041 10.7339 19.8091 10.7308 19.8142 10.7277C19.8797 10.6873 19.9467 10.6494 20.0123 10.609C20.4373 10.359 20.8711 10.1262 21.3127 9.906C22.1659 9.48236 23.0492 9.11333 23.9504 8.8047C24.4068 8.64855 24.8688 8.50454 25.3352 8.37881C25.4525 8.34649 25.5673 8.31571 25.6842 8.28542C25.721 8.27484 25.7595 8.26678 25.7984 8.25669C25.8167 8.25242 25.8991 8.23116 25.9128 8.22796C26.1475 8.17195 26.3813 8.12003 26.6187 8.07112C28.4811 7.68841 30.3868 7.52974 32.2854 7.57225C32.5056 7.57749 32.7252 7.58479 32.9444 7.59411C32.9849 7.5952 33.023 7.59783 33.0631 7.60097C33.0824 7.60127 33.1671 7.60646 33.1798 7.60733C33.3193 7.61702 33.4589 7.62671 33.5984 7.63639C34.0563 7.67265 34.5116 7.71913 34.9686 7.77679C35.9156 7.89785 36.858 8.06529 37.7872 8.27921C38.6919 8.48728 39.5864 8.73823 40.4683 9.0336C40.5018 9.04597 40.5379 9.05677 40.5716 9.06913C40.5898 9.07352 40.6667 9.10272 40.683 9.10661C40.7939 9.14613 40.9048 9.18566 41.0158 9.22518C41.2372 9.30628 41.4561 9.38891 41.6745 9.4736C42.1093 9.64248 42.5411 9.82364 42.9665 10.014C43.7897 10.3838 44.5975 10.791 45.3825 11.2402C45.7757 11.466 46.165 11.6995 46.5488 11.9468C46.5952 11.9774 46.6438 12.0084 46.6901 12.039C46.7034 12.0464 46.7422 12.073 46.7682 12.0901C46.8295 12.1307 46.8907 12.1712 46.9516 12.2138C47.1512 12.3501 47.3503 12.4884 47.5465 12.6305C48.3403 13.2047 49.1016 13.8252 49.8192 14.4935C50.0286 14.6883 50.2365 14.8892 50.4378 15.0906C50.5489 15.2014 50.6575 15.3137 50.7662 15.4261C50.8195 15.482 50.8749 15.5384 50.9276 15.5964C50.9584 15.6297 50.9912 15.6635 51.0219 15.6967C51.0302 15.7073 51.0424 15.7188 51.0578 15.7355C51.4778 16.2008 51.8842 16.678 52.269 17.1738C53.0241 18.1446 53.7017 19.1702 54.3067 20.2389C54.3191 20.2591 54.3247 20.2713 54.3309 20.2814C54.3366 20.2936 54.3444 20.3062 54.3562 20.3285C54.3935 20.3978 54.4307 20.4671 54.4679 20.5365C54.5283 20.6524 54.5889 20.7684 54.6493 20.8843C54.8049 21.187 54.9536 21.4924 55.0951 21.8004C55.3475 22.3465 55.5787 22.9005 55.7907 23.4628C56.2579 24.7034 56.5353 25.6677 56.7934 26.9382C57.0339 28.1289 57.1839 29.339 57.23 30.5521C57.2309 30.5934 57.2344 30.6871 57.2344 30.6871C57.2372 30.7654 57.238 30.8433 57.2387 30.9212C57.2403 31.077 57.2418 31.2327 57.2409 31.3901C57.2374 31.7022 57.2293 32.0153 57.2132 32.3266C57.1805 32.9684 57.1184 33.6075 57.0273 34.2418C56.8329 35.5982 56.5047 36.9117 56.0447 38.2282L56.0421 38.2297Z" fill="#111111"/>
<mask id="mask0_57_2" style="mask-type:alpha" maskUnits="userSpaceOnUse" x="17" y="16" width="31" height="30">
<path d="M32.4995 45.5967C24.4625 45.5967 17.9473 39.0814 17.9473 31.0444C17.9473 23.0074 24.4625 16.4922 32.4995 16.4922C40.5365 16.4922 47.0518 23.0074 47.0518 31.0444C47.0518 39.0814 40.5365 45.5967 32.4995 45.5967Z" fill="white"/>
</mask>
<g mask="url(#mask0_57_2)">
<path d="M37.0078 13.4807C46.8253 16.1114 52.6723 26.2387 50.0417 36.0563C47.4111 45.8738 37.2838 51.7209 27.4661 49.0903C17.6486 46.4596 11.8016 36.3323 14.4322 26.5147C17.0628 16.6972 27.1901 10.8502 37.0078 13.4807ZM28.0625 46.8647C36.6529 49.1664 45.5143 44.0503 47.8161 35.46C50.1179 26.8696 45.0018 18.0081 36.4114 15.7064C27.821 13.4046 18.9596 18.5207 16.6578 27.1111C14.356 35.7014 19.4721 44.5629 28.0625 46.8647ZM21.4042 34.1972C22.4469 38.0879 25.414 41.0389 29.3413 42.0913C33.2686 43.1437 37.314 42.0716 40.1625 39.2236C40.6124 38.7737 40.6125 38.0442 40.1627 37.5944C39.7126 37.1443 38.9833 37.1443 38.5335 37.5942C36.2739 39.8534 33.0605 40.7026 29.9377 39.8657C26.815 39.0289 24.4568 36.6869 23.6297 33.6008C23.4651 32.9862 22.8333 32.6215 22.2188 32.7862C21.6041 32.951 21.2395 33.5826 21.4042 34.1972ZM42.9628 29.459C43.2917 28.2313 42.5606 26.9649 41.3329 26.6359C40.1051 26.3069 38.8386 27.038 38.5096 28.2658C38.1807 29.4935 38.9119 30.76 40.1396 31.089C41.3674 31.4179 42.6338 30.6868 42.9628 29.459ZM23.8613 24.3408C23.5323 25.5685 24.2635 26.8349 25.4912 27.1639C26.719 27.4929 27.9855 26.7618 28.3144 25.534C28.6434 24.3063 27.9122 23.0398 26.6845 22.7108C25.4568 22.382 24.1902 23.1131 23.8613 24.3408Z" fill="#111111"/>
</g>
</svg>
