<svg width="592" height="576" viewBox="0 0 592 576" fill="none" xmlns="http://www.w3.org/2000/svg">
<path d="M103.298 421.72C165.386 509.635 313.216 552.553 394.735 466.247C414.194 445.638 433.926 424.714 459.235 411.223C480.735 399.768 504.341 389.015 518.74 368.441C550.759 322.683 519.713 271.592 494.039 232.09C469.647 194.555 463.651 147.187 436.025 112.028C418.941 90.3011 394.056 76.3283 367.095 71.1385C339.465 65.8118 314.375 76.467 287.401 80.5605C266.938 83.6736 247.421 80.0458 227.076 80.314C209.658 80.5676 191.047 85.9026 174.936 92.515C139.698 106.969 109.636 133.036 89.1996 165.041C40.0518 242.174 51.0886 347.811 103.298 421.72Z" fill="#CAEF96"/>
</svg>
