<svg width="94" height="103" viewBox="0 0 94 103" fill="none" xmlns="http://www.w3.org/2000/svg">
<path fill-rule="evenodd" clip-rule="evenodd" d="M71.5375 15.3434C61.5355 12.4079 27.1379 15.4169 26.2873 16.0528C24.8954 17.2094 18.1248 20.8792 17.0713 21.7171C7.54516 31.8135 16.6266 46.807 15.9277 58.9869C15.9722 63.3073 14.1312 67.2521 13.2849 71.4084C12.9276 73.5865 13.0064 75.8395 14.1416 77.795C16.1376 81.2893 20.3526 81.9977 23.7807 83.4067C25.4865 84.1411 27.0803 85.1825 28.5412 86.3218C38.3777 95.0234 43.853 100.982 58.2056 99.019C58.279 99.7042 58.886 100.377 59.6385 100.071C61.4007 99.3537 63.1502 98.5925 64.9277 97.9124C65.3076 98.8278 66.3989 99.0892 67.1382 98.2807L67.1425 98.2865C70.4327 95.6175 72.5252 91.9681 74.0793 88.0613C75.1669 85.8074 76.0575 83.4557 76.738 81.034C76.8149 80.7599 76.8048 80.5151 76.7352 80.3043C79.8752 69.4841 81.0372 58.0801 80.2106 46.8457C80.0432 44.5278 79.6055 42.1793 79.713 39.8517C79.8103 37.7487 80.7162 35.7595 81.4069 33.801C84.9682 25.4751 79.5243 17.9649 71.5375 15.3434Z" fill="#EDB98A"/>
<path fill-rule="evenodd" clip-rule="evenodd" d="M72.7956 1.82493L72.9022 1.74227C74.0554 0.837563 75.1427 -0.348136 76.7688 0.0964844C78.1025 0.461254 78.7759 1.56492 79.0621 2.89867C79.4681 2.47404 79.8628 2.03444 80.2481 1.57988C81.2957 0.345276 83.6358 0.985027 83.9482 2.55821C84.5805 5.72704 84.6123 8.95198 83.9968 12.1264C83.9033 12.6072 83.7929 13.086 83.6639 13.5593C84.3653 12.6857 85.0182 11.7747 85.6037 10.8151C86.2378 9.77317 87.6707 10.2895 87.7699 11.4025C87.796 11.6906 87.811 11.9824 87.8147 12.2761C88.2618 12.4332 88.5705 12.8934 88.4526 13.4583C87.8017 16.5672 86.9767 19.6332 85.9853 22.6467C87.579 21.8012 89.3655 21.2999 91.0472 21.8966C93.7184 22.8469 94.3544 25.7613 93.8325 28.2698C93.1759 31.4237 91.1108 34.0631 88.447 35.7934C88.1309 36.2686 87.8185 36.7474 87.5211 37.2357C87.5155 38.6143 87.2648 39.9892 86.7597 41.2668C86.1911 42.7016 85.1884 43.9418 83.9538 44.8846C83.5199 45.8295 82.3707 46.5197 81.3617 46.3284L81.3087 46.3175L81.3069 46.3194C81.565 47.2435 81.7876 48.1769 81.9803 49.1122C83.4721 56.3586 82.7168 63.9016 81.3561 71.1071L81.3125 71.337C80.091 77.7495 78.6693 84.3901 75.9064 90.3443C73.4073 95.7279 69.1703 100.462 63.1152 101.637C55.9918 103.02 48.1072 100.829 41.9809 97.1758C39.7605 95.8514 41.7958 92.3608 44.0068 93.7077C47.1981 95.6494 50.6643 97.0056 54.3307 97.7201C57.7577 98.3861 61.5906 98.6124 64.8773 97.2319C69.4547 95.3089 72.1745 90.6118 73.8955 86.1897C74.9094 83.5802 75.6688 80.8865 76.3759 78.1816C77.2869 74.7041 78.1362 71.2042 78.7741 67.665C79.9619 61.0636 80.3473 54.2078 79.0902 47.5877C78.6899 45.4757 78.1231 43.3507 77.3842 41.308C77.2682 41.164 77.1579 41.0031 77.0587 40.8273C76.2861 39.4729 75.753 37.9334 75.1787 36.4687C74.6755 35.5951 74.1256 34.7552 73.542 33.934C72.6693 33.2634 71.8382 32.5464 71.0769 31.7641C73.2881 30.3324 75.2394 28.5399 76.6433 26.2567C76.8748 25.8801 76.7278 25.5202 76.4534 25.3172C75.3323 26.7196 73.8811 27.9073 72.3547 28.9595C71.5728 29.6292 70.7306 30.2308 69.8481 30.7744C69.2175 30.8992 68.58 30.9848 67.9619 31.0552C66.2017 31.2553 64.4321 31.1805 62.6812 30.9467C58.895 30.4416 42.883 26.0318 36.1334 27.746C34.7274 28.1031 34.0645 29.3641 33.32 30.5482C32.6742 31.5782 31.8528 32.4308 30.8674 33.1327L30.7573 33.2101C28.8305 34.5439 24.9567 38.7632 23.3283 42.5291C21.2257 47.3912 19.2062 61.9615 20.1359 62.0868C22.5677 62.416 23.9145 63.6955 25.8955 65.0686C26.0265 65.1583 25.9498 65.4015 25.7814 65.3398C24.4739 64.8684 23.0597 64.5897 21.6885 64.3615C20.4483 64.1538 19.1426 64.1164 17.9454 64.5597C16.1085 65.2406 15.2124 66.7802 14.8439 68.5161C14.6999 69.1951 14.6363 69.9041 14.6288 70.6056L14.6278 70.809C14.6287 73.0207 15.0411 75.4726 16.6472 77.1041C17.33 77.7981 18.2559 78.2657 19.2249 78.3948C20.2856 78.537 20.9403 78.0581 21.9149 77.8093C23.0372 77.5231 23.9127 78.262 23.8079 79.2254C24.0455 79.433 24.2756 79.6519 24.5038 79.8745L24.504 79.8754L24.5057 79.8763C24.6553 79.9437 24.7975 80.0335 24.9265 80.142C25.1379 80.3215 25.3156 80.518 25.4578 80.7293C25.7739 80.7911 26.077 80.9669 26.3258 81.2887C26.8383 81.949 27.3116 82.6168 27.7512 83.2977C28.5387 84.1339 29.3225 84.9719 30.0951 85.823C31.025 86.846 31.9302 87.8923 32.8414 88.9325L33.2976 89.452C33.7895 90.0113 34.2796 90.5706 34.7697 91.1318L34.9159 91.2966C35.409 91.8487 35.7868 92.2563 35.8397 93.0511C35.8771 93.6403 35.243 94.0406 34.7173 93.906C33.9069 93.697 33.5307 93.0608 33.0451 92.4296L32.3117 91.4889L31.6215 90.6024C31.2792 90.161 30.9331 89.7214 30.5889 89.2818C30.486 90.0918 29.6293 90.7446 28.8474 90.7802L28.6651 90.7873C26.8289 90.8482 24.5975 90.5892 23.2 89.2949C22.5714 89.929 21.7895 90.4285 20.8262 90.7278C18.6375 91.4087 16.4003 90.2021 15.5155 88.3671C13.8001 89.1022 11.8622 89.25 10.0084 88.7094C8.93916 88.396 8.56939 87.0634 9.31447 86.2478L9.34807 86.2121L9.35667 86.2024C9.20291 86.0024 9.11836 85.7577 9.1047 85.4912C9.08805 85.1676 9.32394 84.8245 9.2753 84.5224C9.08974 83.3703 7.21089 84.2238 6.61379 84.4734C6.49968 84.5209 6.39268 84.5435 6.29279 84.5471C5.36964 84.8159 4.36568 83.603 4.84924 82.6018C5.93232 80.3646 6.98922 78.1105 8.0854 75.877C7.94698 75.9237 7.80481 75.9668 7.66451 76.0023C5.69476 76.5074 3.30598 75.5384 3.76054 73.1646C3.8653 72.6071 4.37036 72.2255 4.87169 72.0534C5.84815 71.7167 6.58143 71.9599 7.33342 71.6456C8.1808 71.294 9.0656 70.6486 9.81011 70.0406C10.6051 69.3934 11.2916 68.6657 11.8996 67.8763C12.1428 66.7297 12.5637 65.6335 13.2371 64.6907C13.2782 64.6346 13.3194 64.5785 13.3624 64.5242C9.04376 63.4945 9.60926 59.2473 7.7043 55.4833L7.54335 55.1713C6.24955 52.6536 5.12081 49.8149 5.77332 46.9479C5.8893 46.441 6.05766 45.9565 6.27465 45.5038C5.92858 45.5468 5.58065 45.5861 5.23459 45.6254C4.43957 45.7152 3.63147 44.6901 3.9476 43.9362C4.11409 43.5415 4.29741 43.1599 4.49569 42.7895C5.04565 41.7682 5.72095 40.8403 6.51596 40.0023C5.18034 39.9668 3.84285 39.9668 2.52219 39.8134C1.27449 39.6693 -0.0368074 38.9866 0.000789811 37.5481C0.040262 36.1765 1.24363 35.1383 2.35945 34.4692C3.45769 33.0085 4.85073 31.7944 6.42635 30.8922C6.11466 30.8222 5.79884 30.7702 5.47783 30.7383L5.31689 30.7241C4.41713 30.653 3.60902 30.4061 2.79343 30.0301C2.06389 29.6934 2.07512 28.672 2.55212 28.1576C4.09426 26.4905 6.40484 27.0333 8.20269 27.9887C8.07751 27.8298 7.94039 27.6768 7.79099 27.5304L7.69987 27.4434C6.81656 26.6209 8.14227 25.301 9.02258 26.1207C9.30074 26.3797 9.54991 26.6613 9.77214 26.9596L9.79327 26.9155C10.9564 24.5563 12.6575 22.4447 14.6702 20.7526L15.1432 20.3593C18.7725 17.3277 19.8923 15.8908 24.7189 16.3372C24.5131 15.4604 24.5333 14.4741 24.5796 13.6632L24.5861 13.5537C24.7713 10.5046 25.8955 6.85502 28.8698 5.48573C29.6424 5.13218 30.5178 5.7102 30.312 6.595C30.168 7.22166 29.9922 7.83148 29.7733 8.42446C30.4224 7.74169 31.1183 7.10381 31.8553 6.51643C34.8595 4.12205 38.8739 2.0625 42.8227 2.73592C44.9926 3.10817 46.6949 4.46998 48.5113 5.60732C50.337 6.75213 52.3759 7.43117 54.5141 7.67622C57.5014 8.02041 60.5 7.67435 63.4537 7.12813C65.4833 6.24332 67.4531 5.207 69.3761 4.09025C70.5583 3.40373 71.7088 2.65361 72.7956 1.82493ZM19.7563 68.0503C20.3885 67.8875 21.0975 67.8894 21.7316 68.0484C23.3684 68.4599 24.8911 69.8292 24.9865 71.5558C25.0295 72.3359 24.401 73.0822 23.6715 73.2824C22.8446 73.5106 22.1338 73.1065 21.6512 72.4593C21.133 71.7672 21.004 71.0171 20.3698 70.3885L20.2236 70.2462C19.6846 69.7307 18.8694 69.0643 18.1213 69.1839C18.011 69.2007 17.9287 69.0511 18.0409 68.9912C18.6507 68.6582 19.051 68.2299 19.7563 68.0503ZM24.8418 21.0309C22.4495 19.9553 20.0702 20.9263 18.1168 22.4408C17.9551 22.5661 17.8768 22.7124 17.8596 22.8594C19.1637 22.3516 20.5523 22.0186 21.8797 21.7438C22.965 21.519 24.0606 21.3672 25.1576 21.3074C25.0962 21.1972 24.9954 21.0999 24.8418 21.0309Z" fill="black"/>
<path fill-rule="evenodd" clip-rule="evenodd" d="M54.76 84.0149C53.4054 83.4621 52.1967 82.5399 51.3131 81.3619C51.0059 80.9524 50.9262 80.52 50.9907 80.1245C51.0632 79.6797 51.3262 79.2766 51.6849 79.0063C52.0447 78.7351 52.4947 78.6013 52.9298 78.6695C53.3079 78.7287 53.6843 78.9358 53.9822 79.3653L54.0444 79.4512C54.5698 80.1622 55.2543 80.7456 56.0343 81.1216C56.7861 81.484 57.627 81.6532 58.4971 81.5548C60.1543 81.3675 61.2965 80.4709 62.5105 79.2534C62.661 79.0997 62.8116 78.9412 62.9629 78.7801C63.0585 78.6341 63.1911 78.5402 63.3383 78.491C63.5018 78.4363 63.6867 78.4394 63.8561 78.4985C64.0195 78.5555 64.1655 78.6636 64.2634 78.8075C64.3565 78.9442 64.4093 79.1131 64.3921 79.3073C64.281 80.5691 63.6216 81.6952 62.6849 82.5794C61.6446 83.5614 60.2657 84.2408 58.9674 84.4791C57.5371 84.7415 56.0797 84.5535 54.76 84.0149ZM59.6421 64.5496C61.1638 65.4749 63.4824 67.6325 61.8454 69.9265C59.9185 71.9491 57.1443 69.63 55.7772 68.5812C54.5095 67.7683 53.0852 69.8589 54.2614 70.8081C64.1401 78.1248 68.1492 64.7916 60.4118 63.4617C59.5599 63.3151 59.2435 64.2633 59.6421 64.5496ZM41.9393 56.0384C42.1074 53.9506 45.2857 53.4766 45.6019 55.5424C45.885 57.393 45.5517 59.093 44.7185 60.7592C43.9223 62.3509 41.9212 61.6083 41.7699 60.1589C41.567 58.216 41.8347 57.337 41.9393 56.0384ZM66.1333 55.1141C66.5764 54.5335 67.2162 54.1372 67.9828 54.3612C70.3777 55.0613 69.6718 58.4627 68.8307 60.1183C68.3737 61.0174 66.8964 61.2454 66.2288 60.4538C65.1407 59.1628 64.6196 56.5847 66.0029 55.3131C66.0404 55.2473 66.0821 55.181 66.1333 55.1141ZM44.6848 46.9032L45.0631 46.8369C46.2334 46.6344 47.6886 46.4399 48.5165 47.3811C48.9556 47.8803 49.1067 48.808 48.5165 49.2857C47.4783 50.1264 46.3305 49.8006 45.0864 49.8718C44.0611 49.9306 43.0757 50.1004 42.0881 50.3828C39.9215 51.0023 38.156 52.1332 36.3056 53.375C36.0627 53.5379 35.8149 53.2272 35.9308 53C36.999 50.9069 39.0691 49.1876 41.1426 48.1395C42.2493 47.5801 43.4604 47.116 44.6848 46.9032ZM63.9501 45.9656L64.2397 46.0248C67.3908 46.6837 71.4847 48 72.9769 51.0963C73.0338 51.5341 72.9737 51.6279 72.9248 51.6893L72.9086 51.7097C72.8683 51.762 72.8362 51.8342 72.6465 51.8938C72.5939 51.8812 72.5407 51.8679 72.487 51.8538C71.803 51.6745 71.2618 51.4275 70.7379 51.1712L70.1698 50.8912C69.5108 50.5679 68.8459 50.2564 68.1413 50.0264C66.6376 49.5358 65.0909 49.1902 63.5203 49.0056C63.1799 48.9656 62.8521 48.8507 62.5934 48.6537C62.348 48.4667 62.1604 48.2078 62.0749 47.8637C61.9641 47.4184 61.996 47.0813 62.2348 46.6795C62.4144 46.3778 62.6714 46.1687 62.9664 46.0486C63.2673 45.9262 63.6097 45.8973 63.9501 45.9656Z" fill="black"/>
</svg>
